# xmcd CD database file
#
# Track frame offsets:
#	150
#	23197
#	46293
#	65150
#	87478
#	107716
#	127981
#	154251
#
# Disc length: 2419 seconds
#
# Revision: 1
# Processed by: cddbd v1.5.2PL0 Copyright (c) Steve Scherf et al.
# Submitted via: CDex 1.51
#
DISCID=69097108
DTITLE=Cowboy Junkies - Sing In My Meadow - The Nomad Series, Volume 3
DYEAR=2011
DGENRE=Country
TTITLE0=Continental Drift
TTITLE1=It's Heavy Down Here
TTITLE2=3rd Crusade
TTITLE3=Late Night Radio
TTITLE4=Sing in My Meadow
TTITLE5=Hunted
TTITLE6=A Bride's Price
TTITLE7=I Move On
EXTD=YEAR: 2011
EXTT0=
EXTT1=
EXTT2=
EXTT3=
EXTT4=
EXTT5=
EXTT6=
EXTT7=
PLAYORDER=
